<svg fill="#009975" viewBox="0 0 1024 1024" xmlns="http://www.w3.org/2000/svg">
    <g transform="translate(512, 512) scale(0.05, -0.05) translate(-6825, -6825)">
        <path d="M6930 11295 c-203 -34 -362 -111 -520 -252 -332 -297 -513 -817 -496
-1433 8 -267 43 -430 119 -585 36 -74 97 -175 119 -193 30 -24 30 -24 5 57
-102 334 -115 677 -41 1135 73 451 229 844 485 1220 120 174 278 300 445
355 77 25 106 29 203 29 133 0 205 -15 282 -58 35 -20 70 -69 77 -110 l5 -27
-87 0 c-205 0 -381 -77 -577 -255 -201 -182 -324 -360 -455 -655 -43 -96
-53 -134 -33 -134 15 0 33 32 70 125 112 282 312 567 490 697 191 140 345
208 525 233 l88 12 -3 -47 c-4 -59 -86 -225 -222 -475 -93 -169 -282 -388
-422 -488 -215 -154 -315 -250 -400 -382 -191 -297 -196 -703 -13 -960 49
-68 103 -109 130 -94 7 4 -16 35 -56 76 -119 123 -168 266 -168 493 0 125
19 269 44 316 11 20 12 20 18 -5 30 -90 59 -131 103 -156 16 -9 32 -33 50
-77 50 -124 100 -223 151 -300 l52 -78 -1 -122 c-1 -310 -131 -492 -420 -600
-120 -44 -227 -67 -296 -67 -70 0 -151 -20 -235 -59 -33 -15 -102 -42 -153
-60 -117 -39 -168 -69 -245 -145 -74 -73 -111 -136 -149 -253 -48 -141 -68
-291 -105 -725 -40 -475 -64 -632 -133 -850 -36 -114 -39 -134 -44 -255 l-4
-131 -28 41 c-55 81 -56 84 -39 150 17 67 14 172 -11 340 -11 75 -14 146 -11
265 2 145 13 157 -13 157 -23 0 -50 -48 -75 -135 -46 -151 -50 -224 -29 -420
l5 -42 -17 38 c-44 95 -87 336 -87 490 0 58 -4 107 -8 111 -17 11 -45 -18 -64
-68 -27 -73 -33 -194 -16 -280 16 -70 14 -84 -7 -55 -42 56 -237 289 -247
293 -19 6 -14 -48 10 -112 56 -150 146 -284 300 -445 132 -136 135 -140 67
-95 -63 38 -189 102 -225 114 -13 4 -77 33 -143 64 -105 48 -122 54 -134 42
-12 -12 -11 -20 6 -67 75 -200 315 -334 597 -334 l60 0 46 -56 c60 -71 106
-141 101 -146 -3 -3 -36 12 -75 33 -38 20 -89 45 -116 52 -115 34 -462 75
-512 62 l-26 -7 36 -30 c68 -56 366 -199 476 -227 26 -7 101 -13 167 -15 79
-2 124 -7 134 -15 18 -15 142 -203 142 -213 0 -12 2 -13 -95 33 -48 23 -118
48 -153 56 -117 24 -318 61 -337 61 -29 0 -26 -27 7 -71 15 -20 28 -41 28
-48 0 -39 -482 -326 -885 -523 -270 -133 -391 -180 -482 -182 -55 0 -71 5
-190 58 -78 36 -154 64 -196 72 -250 48 -254 48 -378 106 -119 56 -145 62
-175 51 -22 -8 -45 -58 -38 -84 4 -14 -1 -36 -13 -60 -11 -20 -25 -65 -33
-100 -16 -69 -29 -99 -40 -91 -5 2 -23 35 -41 74 -36 74 -64 99 -117 99 -38
0 -53 -37 -46 -113 l6 -55 -68 34 c-53 28 -77 35 -118 35 -43 0 -52 -4 -68
-24 -17 -22 -18 -27 -5 -51 9 -15 45 -61 83 -102 38 -41 100 -115 134 -162
50 -67 77 -95 125 -125 33 -20 84 -54 110 -74 60 -45 127 -65 308 -86 168
-20 200 -17 582 79 161 40 295 72 297 70 2 -2 -21 -20 -50 -39 -92 -60 -164
-140 -207 -227 -82 -166 -86 -326 -11 -515 90 -232 338 -472 690 -667 168
-94 500 -234 720 -304 18 -6 34 -12 34 -14 0 -2 -26 -22 -58 -45 -78 -55
-112 -107 -117 -176 -4 -48 -2 -55 22 -77 14 -13 36 -26 49 -29 13 -3 45
-21 73 -41 28 -20 54 -36 59 -36 6 0 29 -11 50 -25 35 -24 40 -24 130 -19 53
4 129 15 172 25 133 32 325 24 815 -33 208 -25 565 -29 752 -9 367 39 591
18 985 -88 317 -88 547 -90 1047 -14 337 51 583 61 805 29 109 -15 120 -15
150 -1 17 8 52 18 78 22 26 26 4 59 16 72 27 14 11 35 20 46 20 12 0 43 15 70
33 27 18 62 39 80 47 37 18 75 60 84 93 14 56 -67 175 -161 113 -22 15 -41
28 -41 31 0 3 75 29 167 58 400 130 712 283 958 471 350 266 499 532 465 825
-20 162 -151 355 -288 425 -18 9 -30 18 -27 20 3 3 105 -21 227 -53 430
-111 487 -118 695 -88 158 22 195 35 265 94 22 18 55 40 73 47 43 17 92 66
147 149 28 36 82 101 121 144 39 42 77 89 85 104 13 24 12 29 -5 51 -32 43
-113 35 -200 -19 -24 -15 -47 -26 -50 -23 -3 4 0 24 6 47 19 66 -7 117 -60
117 -40 0 -74 -33 -108 -107 -16 -34 -32 -62 -36 -65 -13 -8 -26 18 -37 74
-7 31 -20 81 -32 112 -12 30 -23 70 -27 90 -6 39 -17 50 -55 60 -20 5 -50
-6 -145 -50 -118 -57 -133 -60 -355 -102 -75 -14 -122 -31 -217 -75 -150
-70 -181 -75 -292 -43 -119 35 -254 94 -527 232 -375 190 -716 401 -900 557
-60 52 -119 125 -119 150 0 8 12 33 27 55 27 39 30 40 91 46 66 7 147 38
175 69 8 10 18 32 20 49 3 18 18 55 37 82 18 26 33 54 33 60 0 7 16 32 35 57
45 57 52 76 34 95 -12 14 -10 19 33 60 28 28 50 60 55 79 5 20 18 39 34 48
15 8 41 31 59 50 30 30 31 35 19 53 -11 17 -10 20 4 29 32 18 89 74 89 89 0
8 -8 20 -18 27 -19 11 -19 12 4 52 25 44 29 70 12 87 -17 17 -46 13 -89 -12
-22 -12 -42 -22 -43 -21 -1 1 -6 17 -13 33 -23 57 -74 32 -90 -43 -5 -20
-14 -34 -29 -40 -13 -5 -31 -21 -40 -38 -8 -16 -29 -44 -46 -60 -22 -21
-37 -55 -55 -110 -23 -74 -26 -78 -47 -73 -34 8 -56 -18 -78 -93 -11 -36
-27 -74 -36 -84 -10 -10 -22 -39 -29 -63 l-11 -45 -21 20 c-43 40 -64 6
-102 -158 -29 -128 -40 -158 -51 -140 -12 22 -72 322 -92 469 -29 200 -53
425 -84 780 -52 592 -77 721 -171 892 -60 106 -200 209 -342 250 -30 9
-74 25 -97 36 -84 42 -162 63 -264 71 -123 10 -284 55 -402 113 -138 67
-233 185 -273 340 -8 31 -18 114 -20 190 l-5 131 48 75 c58 91 147 270 160
334 7 28 16 43 30 48 11 4 36 25 57 45 110 116 200 368 171 483 -16 64 -29
75 -96 75 l-56 0 -103 142 c-213 294 -287 411 -338 538 l-30 75 25 77 c14
42 29 80 33 82 14 8 91 -41 142 -92 90 -88 161 -212 214 -371 31 -91 60
-254 60 -328 0 -74 20 -100 38 -52 23 57 -31 336 -92 487 -68 164 -180 305
-288 377 -71 40 -79 52 -86 126 l-6 64 78 -5 c65 -4 84 -8 131 -35 212 -122
390 -452 469 -870 29 -152 30 -372 1 -487 -23 -95 -55 -177 -93 -240 -32 -51
-45 -93 -20 -93 27 0 123 164 153 258 7 21 15 36 20 32 13 -13 28 -246 23
-369 -4 -83 -11 -143 -25 -190 -31 -108 -93 -228 -157 -300 -69 -79 -77
-114 -15 -70 85 59 173 207 210 348 27 105 35 396 15 533 -22 141 -23 165
-34 334 -13 200 -23 278 -51 396 -75 317 -248 612 -428 730 -98 64 -173 85
-248 69 -41 -9 -43 -8 -81 28 -81 74 -275 118 -425 95z"/>
    </g>
</svg>
