<?xml version="1.0" encoding="UTF-8"?>
<svg width="96" height="96" viewBox="0 0 96 96" fill="none" xmlns="http://www.w3.org/2000/svg">
  <!-- Stiel -->
  <path d="M48 90 Q50 70 47 50 Q46 70 48 90" stroke="#3B7D3A" stroke-width="2.2" stroke-linecap="round"/>
  <!-- Blätter unten -->
  <path d="M52 80 Q60 85 54 90" stroke="#3B7D3A" stroke-width="1.2" fill="none"/>
  <path d="M44 80 Q36 85 42 90" stroke="#3B7D3A" stroke-width="1.2" fill="none"/>
  <!-- Pusteblume-Kugel -->
  <circle cx="48" cy="36" r="20" fill="none" stroke="#B7E283" stroke-width="2"/>
  <!-- Viele feine Strahlen -->
  <g stroke="#3B7D3A" stroke-width="0.7">
    <line x1="48" y1="16" x2="48" y2="6" />
    <line x1="48" y1="56" x2="48" y2="66" />
    <line x1="68" y1="36" x2="80" y2="36" />
    <line x1="28" y1="36" x2="16" y2="36" />
    <line x1="62" y1="22" x2="72" y2="14" />
    <line x1="34" y1="50" x2="24" y2="58" />
    <line x1="34" y1="22" x2="24" y2="14" />
    <line x1="62" y1="50" x2="72" y2="58" />
    <line x1="56" y1="16.5" x2="62" y2="6" />
    <line x1="40" y1="16.5" x2="34" y2="6" />
    <line x1="56" y1="55.5" x2="62" y2="66" />
    <line x1="40" y1="55.5" x2="34" y2="66" />
    <!-- weitere feine Linien -->
    <line x1="60" y1="28" x2="74" y2="24" />
    <line x1="36" y1="44" x2="22" y2="48" />
    <line x1="60" y1="44" x2="74" y2="48" />
    <line x1="36" y1="28" x2="22" y2="24" />
  </g>
  <!-- Abfliegende Samen -->
  <g stroke="#3B7D3A" stroke-width="0.5">
    <line x1="80" y1="10" x2="88" y2="4" />
    <circle cx="88" cy="4" r="1.2" fill="#B7E283"/>
    <line x1="86" y1="22" x2="94" y2="18" />
    <circle cx="94" cy="18" r="1" fill="#B7E283"/>
    <line x1="10" y1="10" x2="4" y2="4" />
    <circle cx="4" cy="4" r="1.2" fill="#B7E283"/>
    <line x1="14" y1="22" x2="6" y2="18" />
    <circle cx="6" cy="18" r="1" fill="#B7E283"/>
  </g>
  <!-- Blütenmitte -->
  <circle cx="48" cy="36" r="4" fill="#B7E283" stroke="#3B7D3A" stroke-width="1"/>
</svg> 