<?xml version="1.0" standalone="no"?>
<!DOCTYPE svg PUBLIC "-//W3C//DTD SVG 20010904//EN"
 "http://www.w3.org/TR/2001/REC-SVG-20010904/DTD/svg10.dtd">
<svg version="1.0" xmlns="http://www.w3.org/2000/svg"
 width="1365.000000pt" height="1365.000000pt" viewBox="0 0 1365.000000 1365.000000"
 preserveAspectRatio="xMidYMid meet">

<g transform="translate(0.000000,1365.000000) scale(0.100000,-0.100000)"
fill="#000000" stroke="none">
<path d="M6507 11960 c-242 -38 -423 -129 -606 -304 -355 -342 -563 -924 -564
-1581 -1 -294 27 -458 110 -651 42 -97 118 -220 142 -229 34 -13 28 16 -19 90
-132 209 -190 449 -190 783 0 624 209 1226 537 1544 133 129 312 233 472 275
77 20 121 25 226 26 145 0 222 -17 296 -68 40 -28 83 -101 95 -162 l7 -33
-100 0 c-222 0 -407 -89 -627 -300 -226 -218 -357 -419 -490 -751 -45 -114
-56 -159 -36 -159 15 0 36 38 75 140 120 308 337 630 530 788 207 169 371 242
547 242 l78 0 0 -49 c0 -101 -124 -288 -304 -458 -96 -91 -304 -251 -473 -364
-233 -156 -343 -257 -440 -402 -215 -323 -227 -773 -29 -1051 57 -81 116 -124
144 -107 7 4 -15 34 -56 77 -123 129 -174 280 -175 514 0 139 21 288 48 339
13 25 14 25 21 6 35 -99 66 -145 115 -171 18 -9 35 -34 54 -81 55 -136 108
-240 163 -322 l57 -85 -1 -131 c-2 -331 -141 -527 -449 -635 -129 -45 -240
-70 -314 -70 -76 0 -162 -21 -250 -62 -36 -16 -110 -45 -163 -63 -125 -42
-178 -74 -259 -154 -78 -79 -117 -145 -158 -268 -50 -149 -73 -307 -111 -763
-42 -505 -69 -673 -141 -903 -39 -122 -42 -143 -47 -270 l-4 -139 -30 44 c-59
87 -60 90 -42 160 19 72 15 183 -12 363 -12 80 -15 156 -12 278 3 155 2 167
-14 167 -25 0 -54 -51 -82 -145 -49 -161 -54 -239 -31 -445 l5 -45 -19 41
c-47 101 -93 358 -94 522 0 62 -4 115 -8 118 -19 12 -49 -20 -69 -73 -29 -78
-36 -207 -17 -298 17 -75 15 -90 -7 -59 -44 60 -253 308 -263 312 -21 6 -15
-51 11 -120 60 -161 156 -303 311 -463 137 -140 140 -145 72 -102 -64 41 -199
110 -237 122 -14 4 -83 35 -153 68 -113 52 -131 58 -143 45 -13 -13 -12 -22 7
-72 80 -214 336 -356 644 -356 l64 0 50 -60 c63 -76 114 -150 108 -156 -3 -3
-39 13 -80 35 -41 23 -96 48 -124 56 -123 37 -493 81 -548 66 l-28 -7 39 -32
c73 -61 391 -212 509 -242 28 -7 108 -14 179 -16 85 -2 133 -8 144 -16 19 -16
152 -216 152 -229 0 -13 2 -14 -102 36 -52 25 -126 51 -164 60 -125 26 -340
65 -362 65 -31 0 -28 -29 8 -76 16 -21 30 -44 30 -51 1 -42 -516 -348 -953
-563 -291 -144 -419 -192 -517 -194 -60 0 -76 5 -203 62 -84 39 -165 69 -210
77 -266 51 -272 52 -404 114 -129 60 -155 67 -188 55 -23 -9 -48 -62 -41 -90
4 -15 -1 -39 -14 -64 -11 -22 -27 -70 -36 -107 -17 -75 -31 -106 -43 -98 -5 2
-25 38 -44 79 -38 80 -69 106 -125 106 -41 0 -57 -40 -49 -121 l7 -59 -73 37
c-57 30 -83 38 -126 38 -46 0 -56 -4 -73 -26 -18 -24 -19 -29 -5 -55 9 -16 49
-65 89 -109 41 -45 105 -123 143 -173 54 -72 83 -102 134 -134 36 -22 90 -58
118 -80 64 -49 136 -69 330 -93 180 -22 209 -18 622 86 172 44 316 78 318 75
2 -2 -22 -21 -54 -43 -98 -64 -176 -150 -222 -244 -88 -178 -92 -350 -12 -554
97 -249 361 -507 736 -718 180 -101 535 -252 768 -327 20 -6 37 -13 37 -15 0
-2 -28 -24 -63 -48 -83 -60 -120 -115 -125 -189 -4 -52 -2 -59 24 -83 15 -14
39 -28 53 -32 14 -3 49 -23 78 -44 29 -22 58 -39 65 -39 7 0 31 -12 52 -26 38
-26 43 -27 140 -21 56 4 138 16 184 27 142 34 348 26 872 -35 224 -27 604 -31
805 -10 393 42 632 20 1055 -95 344 -94 585 -97 1120 -15 364 55 624 65 862
31 117 -16 129 -16 161 -1 18 8 56 19 84 24 28 4 63 17 78 29 15 12 38 22 50
22 13 0 46 16 75 35 29 19 67 42 86 51 40 19 81 65 90 100 15 61 -72 188 -172
251 -24 16 -44 30 -44 33 0 3 80 31 178 63 428 140 762 305 1027 507 375 286
534 572 496 887 -21 175 -162 382 -309 457 -19 10 -32 20 -29 22 3 3 112 -22
244 -57 460 -119 521 -127 758 -95 169 24 209 38 285 101 24 20 59 43 79 51
46 19 99 71 166 161 30 39 88 109 130 155 42 45 83 96 92 112 14 26 13 31 -5
55 -34 47 -121 38 -215 -21 -26 -17 -50 -28 -54 -25 -3 4 0 26 7 51 20 71 -8
126 -65 126 -43 0 -79 -35 -116 -115 -17 -36 -34 -67 -39 -70 -14 -9 -28 19
-40 80 -7 33 -22 87 -35 120 -12 33 -25 76 -29 96 -7 42 -19 54 -59 64 -22 6
-54 -6 -155 -54 -127 -61 -142 -65 -380 -110 -81 -15 -131 -33 -232 -81 -160
-75 -194 -81 -312 -46 -128 38 -271 101 -563 250 -401 204 -766 431 -948 590
-65 56 -127 135 -127 161 0 9 13 36 29 59 29 42 32 43 98 50 71 7 157 41 187
75 9 10 19 34 21 53 3 20 20 59 40 88 19 28 35 58 35 65 0 7 17 35 38 62 49
62 56 82 37 103 -13 15 -10 21 35 65 30 30 54 64 60 85 6 22 20 42 37 52 16 9
44 33 63 53 31 32 33 38 21 57 -11 18 -11 22 4 31 35 19 95 80 95 96 0 9 -9
22 -20 29 -20 12 -20 13 5 56 27 47 31 76 13 94 -18 18 -49 14 -97 -13 -24
-14 -45 -24 -46 -23 -1 2 -7 18 -14 36 -25 61 -79 35 -96 -46 -5 -22 -15 -36
-31 -43 -14 -5 -33 -23 -42 -41 -9 -17 -31 -47 -49 -65 -23 -23 -40 -59 -59
-118 -25 -80 -28 -84 -51 -79 -36 9 -60 -19 -84 -100 -12 -39 -29 -80 -39 -91
-10 -11 -24 -42 -31 -68 l-12 -48 -23 22 c-46 43 -69 7 -109 -171 -32 -138
-43 -170 -55 -150 -13 24 -77 347 -99 505 -31 215 -57 457 -91 840 -56 639
-83 778 -185 961 -64 115 -216 225 -370 269 -32 9 -80 27 -105 39 -90 46 -174
68 -285 77 -133 10 -307 59 -435 122 -149 73 -252 199 -295 363 -9 33 -19 123
-22 201 l-6 141 52 81 c63 98 158 290 173 349 7 30 18 46 33 52 12 4 39 27 61
49 119 125 215 396 184 520 -17 69 -32 81 -104 81 l-61 0 -111 153 c-230 316
-310 442 -365 579 l-32 81 27 83 c15 46 31 86 36 89 15 9 98 -44 154 -99 97
-95 174 -228 231 -399 33 -98 65 -273 65 -353 0 -80 21 -108 41 -56 25 61 -33
362 -100 524 -74 177 -194 329 -312 396 -76 43 -85 56 -93 136 l-7 69 84 -5
c71 -4 91 -9 142 -38 229 -131 421 -487 506 -938 31 -164 32 -400 1 -524 -25
-103 -60 -191 -101 -258 -34 -55 -49 -100 -33 -100 29 0 133 177 163 278 7 23
16 39 21 34 14 -14 30 -265 25 -397 -4 -89 -12 -154 -27 -205 -33 -116 -101
-246 -170 -323 -75 -85 -83 -123 -16 -76 91 64 187 223 227 375 29 113 38 426
16 574 -23 152 -25 178 -37 360 -14 211 -25 300 -55 427 -81 341 -268 659
-463 786 -106 69 -187 92 -268 75 -44 -10 -46 -9 -88 30 -87 80 -297 127 -459
102z m523 -748 c89 -175 332 -535 439 -649 27 -30 36 -33 85 -33 66 0 78 -15
77 -94 -2 -127 -99 -358 -182 -432 l-22 -19 7 55 c18 156 20 203 5 198 -8 -2
-21 -37 -32 -84 -71 -317 -103 -406 -190 -537 -90 -134 -236 -271 -352 -329
-166 -84 -332 -78 -497 19 -75 44 -228 194 -282 276 -94 144 -160 314 -196
507 -23 120 -35 154 -51 145 -12 -8 -12 -70 0 -132 20 -104 21 -113 7 -113
-17 0 -60 81 -81 153 l-17 59 31 61 c35 72 156 216 220 261 42 30 46 31 155
31 69 0 144 -7 199 -18 98 -21 137 -17 137 13 0 29 -46 48 -157 66 -54 8 -116
19 -138 23 l-40 7 100 69 c158 109 243 172 350 260 106 87 283 266 325 328 14
20 27 37 30 37 3 0 34 -58 70 -128z m-630 -1972 c211 -107 407 -74 640 106 39
30 75 52 81 49 5 -4 9 -50 9 -103 1 -283 117 -484 345 -595 74 -36 246 -93
358 -117 70 -16 71 -20 22 -169 -102 -303 -267 -545 -454 -666 -120 -77 -207
-115 -376 -160 -82 -22 -352 -34 -555 -24 -140 7 -181 13 -270 39 -254 75
-455 214 -578 400 -88 133 -232 465 -232 535 0 27 14 33 155 71 422 112 594
304 612 681 l6 121 91 -70 c50 -38 116 -83 146 -98z m-1073 -682 c6 -7 31 -76
57 -153 151 -448 365 -696 700 -814 389 -137 898 -116 1231 52 280 140 488
424 604 827 25 88 29 95 55 98 35 4 165 -35 172 -51 2 -7 -13 -83 -34 -168
-66 -258 -76 -352 -77 -694 l0 -300 54 -260 c77 -376 77 -382 -64 -945 -157
-628 -167 -770 -76 -1157 36 -151 39 -208 14 -222 -39 -20 -215 -49 -457 -76
l-59 -7 59 55 c62 58 130 159 119 176 -3 6 -15 11 -26 11 -19 0 -19 4 -13 60
6 57 5 60 -15 60 -25 0 -26 8 -6 97 24 104 33 120 96 164 55 39 109 102 109
126 0 7 -8 18 -18 25 -12 9 -17 26 -17 53 0 39 -1 40 -37 43 -60 5 -52 37 31
124 83 89 131 162 131 202 0 17 7 40 15 50 21 28 18 72 -6 95 l-21 19 31 42
c32 44 40 87 20 107 -8 8 -4 21 16 47 22 29 26 43 21 68 -5 23 0 42 20 76 21
35 24 49 16 63 -8 12 -7 30 5 68 9 28 13 54 9 58 -3 4 -22 6 -42 5 -30 -2 -36
1 -45 27 -23 65 -80 42 -104 -43 -10 -35 -25 -60 -40 -70 -19 -13 -25 -25 -25
-55 0 -25 -7 -44 -20 -56 -16 -14 -20 -31 -20 -76 0 -51 -3 -61 -24 -74 -18
-12 -25 -27 -28 -65 -3 -28 -13 -59 -23 -70 -14 -16 -16 -29 -11 -73 6 -49 5
-55 -13 -60 -39 -10 -37 -92 7 -261 8 -31 7 -55 -6 -108 -17 -71 -24 -78 -54
-52 -25 24 -44 5 -52 -54 -11 -76 -7 -114 19 -167 l24 -50 -29 -125 c-16 -69
-32 -133 -35 -142 -9 -22 -23 -14 -35 17 -24 63 -80 45 -80 -26 0 -30 -6 -46
-25 -63 -14 -13 -25 -26 -25 -30 0 -4 18 -44 40 -88 22 -45 40 -90 40 -100 0
-31 -40 -42 -176 -46 l-131 -4 1 42 c1 31 -4 45 -17 54 -16 9 -27 2 -78 -53
l-58 -63 -85 3 c-47 2 -90 9 -95 14 -7 7 8 40 46 100 122 197 207 396 237 555
21 106 21 159 1 167 -43 16 -110 -112 -201 -385 -37 -108 -70 -203 -74 -210
-8 -15 -20 288 -20 506 l0 144 62 81 c102 136 180 324 189 462 4 45 2 50 -18
53 -18 3 -31 -10 -70 -69 -50 -78 -124 -244 -144 -324 -17 -69 -24 -42 -39
162 -11 146 -11 175 1 191 8 11 40 50 71 87 93 111 158 254 158 351 0 121 -89
34 -194 -191 -35 -74 -49 -96 -56 -85 -5 9 -14 61 -21 117 l-13 101 49 53 c77
86 145 251 145 354 0 43 -15 52 -48 28 -39 -29 -88 -123 -138 -263 -12 -33
-25 21 -31 128 -6 106 -5 110 15 116 30 10 114 106 142 164 14 27 24 66 24 92
1 42 -1 45 -23 42 -13 -1 -41 -16 -62 -33 l-39 -31 0 79 c0 90 -16 126 -47
107 -19 -12 -37 -41 -54 -88 l-10 -30 -57 57 c-37 37 -66 57 -81 57 -22 0 -23
-3 -18 -45 4 -25 10 -57 13 -72 7 -25 6 -27 -9 -15 -9 8 -26 12 -39 10 -72
-10 36 -207 166 -303 26 -19 28 -26 37 -134 5 -63 7 -116 5 -118 -2 -2 -21 18
-42 44 -132 167 -236 231 -218 136 17 -94 90 -197 205 -289 78 -62 89 -87 89
-199 l-1 -70 -32 40 c-123 154 -246 247 -272 205 -8 -13 43 -124 86 -187 52
-77 140 -163 192 -189 28 -15 47 -31 47 -42 0 -9 7 -100 14 -202 8 -102 13
-186 12 -187 -1 -1 -40 46 -87 105 -136 173 -238 266 -269 247 -14 -9 -12 -54
5 -111 36 -121 159 -267 290 -345 l75 -44 0 -289 c0 -161 -4 -286 -9 -281 -4
6 -27 66 -50 135 -70 207 -160 380 -197 380 -39 0 -40 -85 -4 -230 30 -118
125 -331 217 -482 26 -44 33 -67 31 -95 -4 -44 -14 -48 -94 -38 -50 6 -56 9
-69 41 -20 48 -39 44 -70 -15 -16 -32 -19 -33 -58 -28 -23 3 -76 2 -117 -3
-41 -4 -76 -8 -77 -7 0 1 23 50 51 109 60 120 81 201 60 219 -19 16 -54 -8
-95 -66 -18 -25 -34 -44 -35 -42 -2 1 4 90 12 196 8 107 13 200 10 207 -10 25
-40 15 -83 -28 l-43 -42 0 109 c0 114 -8 185 -19 185 -10 0 -46 -35 -65 -62
-10 -14 -19 -19 -25 -13 -6 6 -19 66 -31 134 -31 185 -42 196 -85 80 l-23 -64
-26 60 c-37 86 -50 108 -61 107 -19 -2 -28 -80 -18 -154 6 -40 10 -74 9 -75
-1 -2 -18 21 -37 49 -40 61 -65 80 -79 59 -14 -24 20 -75 169 -255 19 -23 16
-22 -73 36 -88 56 -120 50 -91 -18 24 -58 78 -117 150 -164 36 -23 64 -44 62
-46 -1 -2 -43 6 -91 17 -53 13 -91 18 -97 12 -12 -12 39 -84 115 -163 59 -62
125 -103 187 -114 21 -4 42 -12 47 -19 9 -10 82 -184 82 -194 0 -2 -44 36 -99
85 -142 128 -251 196 -274 173 -33 -33 152 -259 261 -320 35 -20 -1 -22 -115
-6 -203 27 -308 46 -315 58 -4 7 -8 65 -8 129 0 64 -4 119 -9 122 -13 8 -34
-21 -80 -109 -61 -117 -65 -122 -97 -105 -14 8 -34 26 -44 41 -19 26 -19 27
15 161 56 224 68 333 62 563 -6 233 -16 289 -125 715 -129 502 -131 533 -54
905 54 265 72 400 72 549 0 210 -41 501 -103 744 l-34 132 61 20 c71 22 129
25 143 8z m-239 -85 c13 -26 69 -262 87 -368 36 -216 46 -581 20 -740 -32
-198 -75 -348 -75 -261 0 35 -18 78 -30 71 -18 -11 -3 -479 20 -645 11 -80 -6
-221 -56 -470 -64 -314 -162 -680 -182 -680 -4 0 -22 72 -40 160 -46 231 -66
269 -99 193 -13 -30 -18 -85 -22 -252 l-6 -215 -53 82 -54 81 5 328 c3 180 8
343 12 361 6 28 5 32 -13 32 -33 0 -70 -38 -104 -108 -32 -65 -33 -70 -37
-219 -2 -84 -6 -153 -10 -153 -11 0 -43 61 -52 99 -5 22 -2 74 6 136 19 132
19 413 0 539 -20 132 -19 221 5 423 11 92 29 272 40 398 53 599 80 754 161
904 82 153 164 222 337 282 125 44 128 45 140 22z m3327 -57 c135 -64 215
-149 277 -298 61 -144 82 -274 128 -783 56 -629 89 -893 155 -1235 46 -240 52
-300 31 -300 -9 0 -16 5 -16 10 0 17 -21 11 -52 -15 -38 -32 -42 -32 -53 7
-14 45 -40 58 -63 33 -33 -36 -70 -171 -75 -281 -3 -64 -11 -112 -21 -132 -26
-51 -137 -192 -150 -192 -7 0 -18 11 -24 25 -15 32 -24 32 -67 -6 -21 -19 -40
-28 -45 -23 -23 24 -170 593 -225 868 -50 251 -57 343 -40 511 21 203 32 575
16 575 -15 0 -31 -42 -31 -81 0 -16 -4 -29 -8 -29 -11 0 -58 214 -73 330 -17
124 -5 492 20 663 24 158 62 336 84 389 l16 37 73 -20 c40 -11 105 -35 143
-53z m-1885 -1247 c11 -20 22 -57 25 -81 6 -40 5 -42 -9 -24 -15 18 -42 82
-61 146 -7 23 -6 24 9 11 10 -8 26 -31 36 -52z m110 -125 c-7 -33 -16 -52 -22
-48 -14 9 -4 161 13 199 14 30 14 29 17 -33 2 -35 -2 -88 -8 -118z m-173 44
c39 -55 76 -128 65 -128 -19 0 -79 85 -101 143 -15 40 1 33 36 -15z m303 29
c0 -21 -83 -144 -87 -130 -5 13 17 60 51 110 22 35 36 42 36 20z m2925 -313
c-3 -24 -10 -46 -16 -49 -13 -9 -11 66 3 106 12 31 13 32 16 10 2 -13 1 -44
-3 -67z m163 69 c-3 -18 -97 -87 -106 -78 -8 8 80 95 96 95 7 0 12 -7 10 -17z
m-5973 -331 c-2 -2 -13 27 -25 65 -15 46 -23 101 -26 173 l-4 105 29 -170 c16
-93 28 -172 26 -173z m205 36 c28 -214 36 -323 22 -332 -15 -9 -26 15 -51 114
-29 113 -38 283 -20 391 l13 84 8 -50 c4 -27 17 -121 28 -207z m2703 220 c-7
-41 -67 -173 -82 -182 -15 -10 -14 -5 13 67 26 68 64 147 71 147 2 0 2 -15 -2
-32z m-249 -189 c15 -27 23 -49 19 -49 -28 0 -174 186 -173 220 1 22 123 -113
154 -171z m-2795 -14 c139 -177 177 -233 167 -243 -18 -16 -240 259 -292 360
-50 99 -23 74 125 -117z m5866 89 c-15 -51 -52 -112 -41 -69 3 11 8 38 12 60
4 22 11 51 16 65 8 21 11 23 19 9 5 -11 3 -34 -6 -65z m215 48 c0 -10 -158
-88 -165 -81 -9 10 27 49 63 69 37 19 102 27 102 12z m-303 -134 c-3 -20 -4
-21 -11 -5 -5 9 -5 29 0 45 7 25 8 26 11 5 3 -13 3 -33 0 -45z m223 -8 c0 -14
-98 -60 -129 -60 -21 0 -22 2 -10 17 30 35 139 69 139 43z m-1909 -113 c-8 -8
-11 2 -11 34 0 59 14 73 18 19 2 -24 -2 -48 -7 -53z m-951 2 c-16 -63 -84
-198 -120 -239 l-30 -35 26 75 c40 114 117 260 131 247 2 -3 -1 -25 -7 -48z
m1028 25 c-7 -15 -14 -21 -16 -15 -5 16 5 41 17 41 7 0 6 -10 -1 -26z m1602 2
c0 -7 -13 -25 -30 -41 -28 -26 -30 -27 -30 -8 0 11 9 32 21 47 20 26 39 27 39
2z m-5144 -271 c7 -191 1 -305 -17 -305 -5 0 -9 44 -10 98 -1 230 -31 239 -39
12 -5 -137 -6 -143 -18 -105 -7 22 -16 97 -19 166 -6 121 -5 130 27 235 18 60
37 118 43 129 10 19 11 18 18 -10 5 -16 11 -115 15 -220z m2109 118 c83 -95
143 -179 133 -189 -9 -8 -106 85 -152 145 -57 74 -91 141 -71 141 2 0 43 -44
90 -97z m2886 -20 c-8 -15 -10 -11 -11 18 0 20 3 52 8 70 7 32 7 31 10 -18 2
-29 -2 -61 -7 -70z m249 109 c0 -8 -48 -55 -82 -81 -31 -23 -23 35 8 64 25 24
74 34 74 17z m-1821 -67 l-1 -40 -14 33 c-16 36 -10 87 7 61 5 -8 8 -32 8 -54z
m-4299 29 c29 -14 105 -48 168 -75 117 -50 286 -142 298 -161 4 -6 3 -9 -2 -7
-5 2 -68 28 -141 57 -139 55 -193 71 -193 55 0 -11 70 -47 225 -114 102 -45
107 -48 70 -49 -115 0 -278 69 -377 160 -58 52 -132 160 -110 160 4 0 32 -12
62 -26z m4400 -7 c0 -17 -38 -53 -46 -44 -8 8 23 57 36 57 6 0 10 -6 10 -13z
m1560 -42 c0 -19 -49 -95 -61 -95 -14 0 -11 8 18 61 26 49 43 62 43 34z
m-4225 -310 c77 -305 89 -391 89 -635 0 -220 5 -188 -75 -532 -22 -93 -22 -99
-6 -133 14 -30 15 -43 6 -88 -6 -28 -17 -63 -24 -76 l-12 -24 -33 44 c-66 91
-73 113 -77 254 -6 200 -50 385 -95 393 -34 6 -53 -53 -51 -163 1 -55 -2 -93
-7 -85 -14 28 -50 197 -50 240 0 24 20 111 45 194 56 191 114 427 154 626 17
85 36 180 42 210 l12 55 15 -35 c8 -19 38 -129 67 -245z m2925 85 c49 -255 83
-391 214 -862 l24 -86 -33 5 c-40 6 -59 -17 -70 -85 -4 -25 -14 -46 -25 -52
-34 -18 -44 -64 -31 -145 10 -57 10 -79 0 -97 -18 -35 -182 -258 -189 -258 -9
0 -70 132 -70 152 0 8 10 28 23 44 30 39 27 78 -19 304 -36 176 -38 194 -38
370 0 198 4 227 85 575 52 223 82 328 90 313 4 -8 22 -88 39 -178z m-406 158
c3 -13 6 -34 6 -48 -1 -32 -14 -10 -25 38 -7 36 9 45 19 10z m116 -10 c0 -14
-40 -58 -52 -58 -14 0 -9 16 13 44 22 28 39 34 39 14z m1450 -22 c0 -40 -17
-95 -36 -116 -20 -21 -19 -6 11 128 8 34 25 26 25 -12z m200 -4 c0 -13 -31
-38 -77 -61 -92 -46 -91 -13 2 40 51 29 75 36 75 21z m-326 -109 c-4 -27 -11
-59 -17 -73 -9 -23 -11 -23 -15 -5 -6 26 17 125 29 125 6 0 8 -18 3 -47z
m-1488 -8 c7 -19 14 -45 13 -57 -1 -21 -2 -20 -13 7 -17 39 -28 85 -21 85 3 0
13 -16 21 -35z m144 5 c0 -16 -68 -86 -75 -78 -9 8 31 74 48 82 20 8 27 7 27
-4z m1600 -20 c0 -12 -100 -80 -117 -80 -20 0 -15 14 15 43 39 37 102 60 102
37z m-4900 -320 c-5 -227 -7 -261 -18 -236 -40 92 -41 361 -2 454 13 29 24 51
25 50 1 -2 -1 -122 -5 -268z m4714 248 c-17 -56 -54 -107 -54 -75 0 17 25 78
36 90 15 15 25 6 18 -15z m-2354 -100 c-22 -72 -75 -185 -104 -223 -15 -19
-15 -19 -16 -1 0 42 129 333 137 308 3 -7 -5 -45 -17 -84z m764 61 c9 -45 8
-65 -3 -53 -14 14 -25 84 -13 84 5 0 12 -14 16 -31z m1704 -41 c-6 -16 -114
-60 -136 -56 -11 3 2 15 38 36 56 33 105 42 98 20z m-2940 -60 c88 -90 212
-261 199 -275 -10 -10 -70 34 -129 94 -86 89 -175 243 -140 243 5 0 36 -28 70
-62z m1288 1 c-12 -28 -15 -30 -15 -12 -1 29 23 83 27 61 2 -9 -4 -31 -12 -49z
m114 53 c0 -5 -14 -21 -31 -38 -30 -28 -31 -28 -19 -4 7 14 17 31 23 38 11 14
27 16 27 4z m-4010 -28 c177 -26 307 -69 377 -124 41 -32 7 -24 -131 31 -82
33 -132 47 -138 41 -6 -6 1 -17 19 -30 36 -25 152 -78 192 -87 17 -4 34 -11
37 -17 9 -15 -90 -3 -166 19 -103 30 -400 167 -400 185 0 10 31 8 210 -18z
m5330 14 c0 -17 -50 -98 -60 -98 -10 0 15 75 33 98 12 15 27 16 27 0z m-1513
-146 c5 -47 3 -55 -8 -45 -7 7 -14 41 -16 75 -3 50 -2 59 7 45 6 -10 14 -44
17 -75z m143 21 c0 -12 -51 -73 -71 -84 -36 -19 -32 -2 11 45 39 42 60 56 60
39z m1035 -227 c-21 -97 -35 -115 -35 -49 0 51 21 169 37 208 16 39 15 -87 -2
-159z m94 57 c-31 -49 -36 -26 -8 34 19 40 23 44 26 25 3 -12 -6 -39 -18 -59z
m122 44 c-16 -16 -26 0 -10 19 9 11 15 12 17 4 2 -6 -1 -17 -7 -23z m83 -72
c25 -38 194 -169 351 -271 400 -262 1132 -632 1303 -659 49 -8 47 -19 -6 -35
-48 -16 -61 -28 -42 -40 21 -14 32 -10 271 106 187 90 226 105 295 115 177 24
239 41 354 93 63 29 124 56 134 60 25 9 56 -2 56 -19 0 -14 -66 -100 -116
-149 -34 -35 -135 -86 -206 -106 -61 -16 -72 -30 -63 -77 5 -27 20 -50 51 -79
41 -39 66 -50 201 -90 28 -8 -1 -34 -120 -109 -27 -17 -28 -17 -50 3 -26 25
-266 140 -367 176 -76 28 -202 36 -216 15 -10 -17 16 -29 65 -29 61 0 203 -50
359 -125 126 -61 146 -77 121 -102 -13 -13 -4 -33 16 -33 22 0 189 116 223
154 16 19 40 61 52 93 21 55 22 63 11 168 -10 89 -9 119 1 150 14 43 45 58 66
32 20 -24 34 -157 30 -296 -3 -121 -6 -142 -29 -191 -43 -91 -172 -203 -285
-246 -42 -16 -50 -16 -152 1 -59 9 -238 50 -397 91 -160 40 -374 91 -475 114
-653 145 -1298 333 -1650 482 -139 58 -290 130 -290 137 0 4 27 33 60 66 80
79 80 115 -1 115 -16 0 -29 3 -29 8 0 10 51 97 102 172 l44 65 69 12 c61 12
145 49 160 72 3 5 7 28 9 50 4 37 52 131 67 131 4 0 14 -11 23 -25z m-110 -16
c-48 -51 -115 -79 -94 -39 14 26 79 70 104 70 17 0 16 -4 -10 -31z m-4185
-279 c27 -129 52 -253 55 -275 l7 -40 -20 25 c-47 59 -100 185 -110 263 -13
90 -15 300 -3 311 9 10 13 -5 71 -284z m950 203 c22 -77 35 -156 21 -133 -9
16 -50 171 -50 189 0 27 11 6 29 -56z m-1679 2 c129 -18 234 -50 315 -96 112
-63 77 -65 -100 -4 -177 60 -198 36 -31 -36 65 -28 75 -35 53 -37 -70 -8 -254
66 -348 140 -53 43 -62 61 -26 54 12 -3 74 -12 137 -21z m1799 -118 c9 -104 6
-147 -9 -147 -14 0 -20 44 -20 160 0 143 16 137 29 -13z m1775 71 c-20 -35
-47 -69 -51 -64 -6 6 12 40 33 60 19 19 28 21 18 4z m1300 1 c-10 -17 -86 -49
-116 -49 -41 0 -34 18 15 40 46 22 113 27 101 9z m-4928 -79 c106 -60 157 -78
260 -90 59 -6 101 -5 163 6 47 8 90 13 96 10 24 -9 260 -339 246 -344 -4 -1
-71 25 -147 59 -166 74 -307 129 -329 129 -26 0 -5 -27 121 -154 109 -110 116
-120 99 -132 -10 -8 -86 -40 -169 -73 -229 -90 -267 -103 -274 -97 -4 4 -32
43 -62 88 -86 128 -112 132 -91 15 20 -106 24 -147 15 -147 -5 0 -41 34 -79
75 -71 75 -108 94 -121 60 -4 -8 10 -43 30 -76 20 -34 35 -63 34 -64 -2 -2
-37 10 -78 26 -119 47 -147 28 -91 -63 17 -27 31 -51 31 -52 0 -2 -10 -6 -22
-9 -13 -2 -111 -28 -218 -56 -107 -29 -346 -88 -530 -132 -184 -43 -492 -117
-685 -164 -412 -100 -474 -110 -538 -91 -86 26 -226 137 -289 228 l-40 60 4
187 c4 163 7 192 26 234 23 51 31 56 54 30 26 -29 30 -79 17 -186 -10 -89 -10
-109 4 -158 25 -85 53 -118 162 -191 114 -77 176 -92 130 -32 -8 10 -15 23
-15 27 0 9 158 85 294 141 48 20 128 43 179 52 95 16 114 24 103 43 -9 14 -67
14 -126 0 -96 -21 -372 -135 -454 -187 l-39 -24 -41 20 c-51 25 -126 79 -126
91 0 5 18 11 40 15 119 19 222 89 236 161 4 22 2 41 -5 48 -6 6 -46 23 -90 37
-101 34 -171 79 -215 138 -20 26 -45 59 -57 74 -13 16 -19 33 -15 43 9 25 43
16 183 -48 126 -57 163 -68 314 -92 53 -8 120 -23 150 -34 61 -21 207 -93 289
-143 67 -40 156 -66 173 -49 15 15 -2 31 -44 40 -53 11 -44 25 28 44 245 64
1068 498 1352 713 31 23 59 43 63 43 4 1 47 -21 94 -49z m3506 0 c3 -19 1 -29
-6 -27 -6 2 -12 18 -14 36 -4 41 14 33 20 -9z m138 -20 c-11 -20 -48 -45 -56
-37 -5 4 53 57 62 57 3 0 0 -9 -6 -20z m-1680 -265 c-7 -49 -15 -96 -19 -103
-8 -15 -71 94 -71 122 0 23 36 128 68 201 l27 60 3 -95 c2 -52 -2 -135 -8
-185z m563 15 c44 -127 69 -233 55 -224 -16 10 -102 198 -133 288 -15 44 -29
105 -31 135 l-5 56 39 -75 c22 -41 56 -122 75 -180z m387 110 c-12 -45 -31
-110 -44 -144 -29 -75 -102 -222 -115 -231 -11 -6 115 373 151 457 20 46 23
50 26 27 2 -15 -6 -63 -18 -109z m-1210 44 c29 -30 50 -58 47 -61 -13 -12
-117 83 -117 108 0 20 19 7 70 -47z m2770 -84 c0 -6 -7 -27 -17 -48 -12 -28
-17 -33 -20 -19 -5 21 15 77 28 77 5 0 9 -5 9 -10z m-3460 -276 c10 -113 3
-159 -18 -107 -19 45 -30 120 -36 243 l-6 115 25 -73 c14 -41 29 -117 35 -178z
m3529 219 c-12 -37 -55 -90 -64 -81 -8 8 15 49 48 86 26 28 28 28 16 -5z
m-2487 -65 c-16 -34 -37 -72 -46 -83 -14 -18 -15 -18 -16 -2 0 18 53 130 73
156 23 28 17 -9 -11 -71z m2274 26 c8 -30 -1 -93 -16 -108 -7 -7 -10 12 -10
62 0 72 14 96 26 46z m-2544 -9 c47 -7 64 -22 81 -68 6 -16 3 -18 -25 -12 -44
10 -119 43 -140 62 -22 20 -13 36 16 30 11 -3 42 -9 68 -12z m-1172 -106 c85
-43 185 -101 223 -129 65 -49 85 -80 50 -80 -28 1 -154 53 -227 94 -72 40
-199 141 -230 183 l-19 25 24 -7 c13 -4 94 -43 179 -86z m4010 82 c0 -10 -120
-95 -126 -89 -2 3 6 17 17 33 35 44 109 82 109 56z m-2540 -196 c-7 -85 -16
-155 -19 -155 -7 0 -71 169 -71 186 0 6 9 19 19 28 10 9 31 37 47 61 15 25 30
43 32 40 3 -2 -1 -74 -8 -160z m2340 130 c0 -19 -59 -85 -60 -66 0 18 39 81
51 81 5 0 9 -7 9 -15z m-950 -59 c-12 -20 -23 -36 -25 -36 -6 0 8 32 25 57 24
36 24 17 0 -21z m810 -26 c0 -20 -7 -45 -15 -56 -13 -16 -16 -17 -25 -4 -11
17 -14 113 -3 123 14 15 43 -27 43 -63z m-2429 44 c17 -8 29 -18 26 -20 -6 -6
-67 23 -67 31 0 8 10 6 41 -11z m1518 -59 c-1 -15 -4 -13 -14 10 -8 17 -14 39
-14 50 1 15 4 13 14 -10 8 -16 14 -39 14 -50z m1129 -7 c-5 -17 -176 -103
-186 -94 -9 10 57 68 101 90 39 19 90 21 85 4z m287 -101 c351 -148 577 -222
1090 -356 149 -39 302 -80 340 -90 l70 -19 -85 -1 c-220 -3 -771 -66 -1012
-118 -16 -3 -28 -1 -28 5 0 9 22 20 89 41 40 13 71 38 71 57 0 7 -15 25 -34
39 -31 24 -34 29 -24 51 13 28 -3 74 -25 74 -8 0 -40 -9 -72 -20 -32 -11 -70
-20 -84 -20 -18 0 -41 -14 -70 -44 -37 -38 -49 -44 -72 -39 -23 4 -36 -3 -76
-40 -26 -24 -59 -48 -73 -52 -14 -4 -46 -23 -72 -42 -38 -27 -54 -33 -76 -28
-36 8 -63 -13 -142 -110 -66 -81 -65 -81 -159 -37 -60 29 -195 190 -269 322
l-31 56 100 129 c115 149 165 205 184 205 33 0 129 45 182 85 32 24 63 42 68
40 6 -2 100 -42 210 -88z m-4080 4 c66 -33 144 -65 173 -71 29 -7 62 -22 73
-33 25 -27 109 -170 109 -185 0 -14 -52 -42 -78 -42 -11 0 -77 28 -147 61
-120 57 -205 83 -205 63 0 -16 31 -56 112 -145 43 -47 78 -88 78 -91 0 -6 -94
-48 -108 -48 -5 0 -24 30 -43 66 -46 89 -95 146 -123 142 -20 -3 -21 -8 -19
-82 1 -46 11 -107 23 -149 23 -74 19 -91 -23 -99 -15 -2 -24 13 -47 80 -15 46
-71 169 -124 273 -84 166 -93 190 -78 197 9 5 49 21 87 36 39 15 97 40 130 56
33 15 67 29 75 29 8 1 69 -26 135 -58z m1109 5 c131 -101 189 -178 98 -131
-39 21 -167 138 -183 168 -18 32 12 19 85 -37z m350 -36 c-20 -38 -40 -70 -45
-70 -5 0 -9 2 -9 4 0 13 43 103 62 129 36 51 32 12 -8 -63z m1320 58 c-32 -39
-64 -63 -64 -49 0 14 65 81 80 81 6 0 -1 -15 -16 -32z m-124 -20 c0 -14 -19 1
-31 25 -12 22 -12 22 10 3 11 -11 21 -23 21 -28z m-6216 -30 c14 -19 42 -93
66 -172 67 -226 132 -333 252 -421 58 -42 60 -45 33 -45 -44 1 -110 17 -159
41 -63 29 -114 84 -152 164 -37 77 -98 303 -110 403 -7 62 -7 62 19 62 18 0
34 -11 51 -32z m10963 16 c8 -20 -20 -161 -57 -292 -65 -225 -118 -296 -254
-337 -45 -14 -90 -25 -100 -25 -12 0 11 29 70 88 107 104 140 166 208 383 26
81 56 158 67 173 23 29 56 34 66 10z m-6677 -13 c0 -98 -42 -450 -56 -473 -24
-39 -33 149 -13 287 12 91 46 205 59 205 6 0 10 -9 10 -19z m-1435 -51 c20
-38 20 -60 1 -40 -15 16 -32 70 -22 70 3 0 12 -13 21 -30z m-2427 -8 c31 -16
81 -37 110 -47 65 -23 67 -43 13 -95 -30 -29 -52 -39 -102 -49 -35 -7 -70 -15
-77 -17 -23 -7 -55 81 -47 129 9 60 25 107 36 107 5 0 35 -13 67 -28z m6653
10 c-26 -48 -227 -298 -331 -412 l-32 -35 31 40 c164 211 333 425 337 425 3 0
0 -8 -5 -18z m3478 -26 c16 -65 14 -138 -5 -165 -15 -21 -22 -23 -69 -18 -87
9 -181 72 -173 116 2 12 199 107 229 110 4 1 12 -19 18 -43z m-10806 -2 c54
-18 124 -78 150 -125 25 -48 107 -272 102 -278 -8 -8 -46 32 -107 112 -33 43
-92 113 -133 156 -80 85 -99 115 -91 137 7 18 22 18 79 -2z m2946 -29 c0 -5
-6 -1 -14 9 -8 11 -15 24 -15 30 0 5 7 1 15 -10 8 -10 14 -23 14 -29z m8529
24 c2 -10 -32 -56 -77 -108 -44 -50 -104 -123 -134 -163 -57 -77 -113 -135
-122 -126 -7 7 82 246 106 285 56 90 216 169 227 112z m-8154 -107 c21 -133
54 -225 106 -302 23 -34 40 -64 37 -66 -8 -8 -143 105 -155 129 -6 12 -13 41
-16 65 -4 23 -24 90 -47 149 -22 58 -38 107 -36 109 10 10 83 31 88 25 3 -3
14 -52 23 -109z m3695 23 c18 -38 36 -87 38 -107 5 -34 1 -42 -51 -95 l-56
-58 0 63 c0 70 -16 88 -51 56 -29 -26 -86 -148 -105 -224 -22 -88 -30 -102
-121 -205 -161 -185 -819 -862 -829 -853 -2 3 27 52 65 109 76 114 215 362
268 479 58 126 82 157 160 206 80 50 250 221 278 280 48 101 -70 57 -241 -91
l-42 -36 43 113 c24 62 60 167 80 233 20 66 42 126 49 133 13 13 396 71 451
68 27 -1 34 -8 64 -71z m-941 27 c-8 -54 -62 -185 -114 -274 -45 -77 -123
-173 -124 -152 -1 28 222 464 238 464 2 0 2 -17 0 -38z m-3185 -32 c55 -26 60
-40 13 -40 -22 0 -51 12 -82 33 -93 62 -57 66 69 7z m1524 42 c9 -6 9 -37 -2
-141 -8 -73 -16 -135 -18 -137 -7 -8 -81 111 -80 128 1 9 11 48 23 87 18 60
24 71 43 71 12 0 27 -4 34 -8z m-1250 -24 c19 -22 50 -89 79 -172 l15 -40 -27
25 c-54 50 -127 209 -96 209 5 0 18 -10 29 -22z m-2777 -45 c0 -35 -3 -44 -10
-33 -13 20 -13 80 0 80 6 0 10 -21 10 -47z m6024 25 c-16 -54 -217 -545 -275
-673 -142 -314 -384 -742 -458 -809 -26 -24 -30 -13 -39 104 l-8 100 34 33
c51 48 203 254 259 349 69 117 105 210 111 291 4 56 2 67 -11 67 -34 0 -191
-227 -286 -413 -30 -59 -56 -105 -58 -104 -2 2 11 114 28 248 l31 244 69 63
c123 113 239 292 299 464 l14 37 70 5 c82 7 147 12 194 14 30 2 33 0 26 -20z
m4616 -10 c0 -18 -5 -40 -10 -48 -7 -11 -10 -2 -10 33 0 26 5 47 10 47 6 0 10
-15 10 -32z m-7551 -178 c59 -117 84 -182 79 -206 -2 -14 -15 -3 -49 46 -83
116 -139 252 -139 335 0 28 2 27 31 -25 17 -30 52 -98 78 -150z m-365 125 c21
-36 36 -68 33 -71 -9 -9 -88 58 -103 87 -10 20 -10 29 -1 38 21 21 33 12 71
-54z m1087 33 c8 -15 8 -18 0 -14 -6 4 -16 16 -22 28 -8 15 -8 18 0 14 6 -4
16 -16 22 -28z m565 12 c201 -31 205 -32 211 -49 17 -53 29 -73 76 -121 53
-53 153 -110 194 -110 13 0 27 -9 34 -21 23 -43 57 -154 49 -157 -5 -2 -33 14
-62 36 -129 95 -201 108 -163 29 26 -55 98 -117 187 -161 82 -40 83 -42 106
-100 13 -32 21 -61 18 -64 -3 -3 -43 20 -90 51 -46 31 -95 61 -110 67 -30 11
-89 13 -99 4 -12 -13 37 -89 92 -144 59 -59 166 -125 220 -136 21 -4 37 -16
46 -34 15 -29 75 -236 75 -259 0 -7 -29 18 -65 57 -70 76 -178 155 -241 177
-96 34 -75 -54 41 -170 71 -71 153 -122 233 -146 58 -17 72 -40 72 -118 l0
-65 -32 30 c-52 48 -106 87 -208 149 -66 40 -130 92 -209 169 -164 161 -234
243 -227 270 19 66 25 218 16 341 -13 157 -28 229 -51 233 -36 7 -86 -174 -97
-351 l-7 -106 -115 140 c-168 205 -153 176 -136 250 8 35 22 120 31 189 9 68
19 128 21 132 8 12 51 10 190 -12z m1195 -13 c-16 -42 -201 -407 -206 -407 -3
0 -3 24 0 53 3 28 10 115 16 192 15 202 5 185 110 185 l89 0 -9 -23z m-468
-69 c12 -157 50 -256 146 -377 l57 -72 -8 -72 c-5 -40 -22 -171 -38 -292 -16
-121 -31 -233 -33 -250 l-3 -30 -16 35 c-9 19 -30 91 -48 158 l-32 124 30 66
c36 79 40 93 52 165 10 62 4 97 -16 97 -23 0 -62 -52 -91 -119 l-27 -64 -13
49 c-18 69 -16 86 12 141 29 56 45 208 26 256 -23 59 -57 27 -91 -85 -6 -21
-16 -40 -21 -44 -10 -6 -59 95 -59 121 0 8 17 41 38 73 37 58 64 118 76 175 5
20 12 27 30 27 22 0 23 -4 29 -82z m237 7 c0 -92 -19 -277 -30 -288 -15 -16
-90 251 -90 320 0 36 8 41 73 42 l47 1 0 -75z m-420 56 c0 -17 -43 -111 -50
-111 -7 0 -40 83 -40 101 0 9 25 16 63 18 15 0 27 -3 27 -8z m67 -53 c-21 -53
-56 -112 -64 -105 -5 5 21 82 48 140 21 46 35 15 16 -35z m209 -74 c14 -65 32
-143 40 -172 9 -30 14 -56 11 -58 -3 -3 -21 27 -41 68 -36 73 -55 163 -56 258
0 73 18 34 46 -96z m-415 86 c23 -33 33 -70 20 -70 -13 0 -151 87 -151 95 0 3
25 5 56 3 47 -2 60 -7 75 -28z m-2198 -19 c20 -5 50 -17 65 -27 l27 -19 -72
-6 c-40 -3 -75 -8 -79 -12 -11 -10 3 -35 31 -53 35 -23 151 -64 180 -64 14 0
25 -4 25 -10 0 -5 -4 -10 -9 -10 -5 0 -72 -11 -147 -25 -99 -19 -154 -24 -194
-19 -30 3 -140 17 -245 30 -104 14 -271 28 -370 31 l-180 6 65 18 c559 147
654 168 760 168 58 0 122 -3 143 -8z m1070 -85 c238 -121 349 -192 318 -204
-10 -4 -172 54 -246 87 -90 41 -305 211 -267 211 6 0 94 -42 195 -94z m295
-46 c68 -98 75 -110 68 -110 -7 0 -115 153 -145 205 -21 36 -21 38 -2 15 12
-14 47 -63 79 -110z m-101 41 c19 -24 32 -46 29 -48 -4 -5 -111 50 -126 64 -8
8 34 34 49 31 8 -2 30 -23 48 -47z m918 2 c32 -26 54 -48 48 -50 -15 -5 -81
37 -112 71 -40 43 -2 31 64 -21z m-1410 -87 c44 -92 59 -151 69 -261 l5 -60
-35 75 c-47 98 -94 238 -101 302 -9 73 10 56 62 -56z m-625 67 c19 -8 29 -17
23 -20 -20 -7 -118 16 -139 33 -17 14 -15 15 31 9 28 -4 66 -14 85 -22z m5200
17 c0 -5 -19 -24 -42 -41 -53 -38 -67 -19 -17 23 34 28 59 36 59 18z m-1415
-57 c-7 -39 -55 -137 -63 -129 -8 9 52 166 64 166 3 0 3 -17 -1 -37z m246 -37
c13 -25 21 -47 18 -50 -2 -3 -40 -8 -84 -12 l-80 -7 25 29 c59 69 74 84 85 84
7 0 23 -20 36 -44z m993 2 c-19 -20 -54 -43 -54 -34 0 14 65 77 68 67 2 -7 -4
-21 -14 -33z m224 -10 c-3 -8 -26 -14 -59 -15 -53 -3 -54 -3 -24 11 39 18 88
20 83 4z m-4425 -90 c-3 -46 -7 -84 -8 -86 -2 -2 -17 4 -35 13 -27 14 -70 67
-70 88 0 10 90 67 106 67 9 0 11 -22 7 -82z m222 14 c50 -22 124 -49 165 -62
41 -12 86 -27 99 -34 14 -6 98 -101 188 -211 210 -256 328 -385 516 -563 166
-158 228 -206 362 -276 154 -82 158 -108 5 -31 -197 99 -306 178 -529 385 -84
77 -155 139 -158 136 -21 -20 225 -270 388 -393 49 -37 86 -69 84 -71 -6 -6
-214 95 -308 150 -80 47 -156 113 -197 173 -15 22 -69 114 -120 205 -150 266
-241 393 -270 375 -18 -11 -5 -89 32 -198 41 -125 68 -176 149 -284 38 -51 66
-93 62 -92 -5 0 -46 24 -93 52 -92 57 -103 71 -119 162 -19 106 -190 415 -234
423 -14 3 -17 -5 -17 -40 0 -89 53 -237 128 -361 41 -67 41 -68 13 -50 -153
99 -151 97 -156 133 -14 91 -42 199 -91 350 -30 91 -54 171 -54 178 0 9 7 9
33 -2 17 -8 73 -32 122 -54z m-839 20 c22 -15 58 -42 80 -60 l39 -33 -35 5
c-19 3 -89 10 -155 16 -207 17 -302 42 -210 55 28 4 88 15 135 25 47 10 90 18
95 19 6 0 28 -11 51 -27z m4694 24 c0 -20 -22 -56 -35 -56 -19 0 -19 5 1 35
14 22 34 34 34 21z m-5700 -16 c206 -11 353 -28 535 -61 182 -33 217 -52 115
-61 -102 -10 -86 -52 33 -86 152 -45 333 -46 478 -3 l77 23 81 -57 c44 -31 83
-61 86 -65 8 -12 -16 -16 -180 -30 -263 -22 -371 -60 -262 -92 27 -8 103 -13
217 -12 158 0 181 2 235 23 102 38 101 38 192 -26 46 -32 83 -61 83 -65 0 -5
-18 -8 -40 -8 -51 0 -241 -27 -304 -43 -55 -13 -81 -41 -56 -58 9 -6 89 -8
210 -6 172 3 202 6 258 26 l63 23 96 -63 97 -64 -110 -7 c-129 -9 -225 -24
-272 -44 -28 -11 -32 -17 -22 -28 25 -31 83 -41 235 -41 140 0 154 2 210 27
l60 27 85 -47 c134 -72 252 -143 247 -148 -3 -3 -72 9 -153 25 -150 31 -266
43 -280 28 -23 -23 120 -108 253 -149 58 -19 94 -22 248 -23 l180 0 185 -86
c102 -48 213 -97 247 -109 94 -34 95 -39 16 -105 -115 -95 -183 -137 -213
-130 -32 8 -310 146 -835 415 -454 232 -672 331 -910 413 -256 87 -561 159
-796 188 -107 12 -144 9 -137 -13 6 -16 36 -23 190 -43 549 -69 945 -220 1908
-726 302 -158 626 -312 785 -372 293 -110 830 -238 882 -208 14 8 14 10 -5 20
-11 6 -87 25 -169 42 -81 17 -150 32 -152 35 -8 8 25 36 131 115 150 111 206
139 275 139 70 0 119 -24 260 -128 149 -110 205 -141 298 -164 106 -27 301
-21 495 16 222 42 261 37 470 -62 58 -27 175 -71 260 -97 169 -51 232 -82 299
-147 84 -82 102 -138 56 -183 -33 -34 -76 -32 -188 9 -155 57 -196 68 -262 69
-63 2 -94 -10 -81 -32 4 -6 36 -11 73 -11 70 0 199 -37 295 -86 49 -25 51 -27
32 -41 -32 -25 -133 -10 -292 41 -78 25 -147 46 -152 46 -6 0 -10 -7 -10 -15
0 -19 33 -35 165 -79 61 -20 117 -41 125 -47 24 -17 -92 -2 -203 26 -115 29
-117 30 -117 10 0 -18 41 -37 124 -60 32 -9 56 -18 53 -21 -3 -3 -86 4 -184
15 -99 12 -207 21 -241 21 -83 0 -359 -33 -593 -71 -182 -30 -214 -32 -524
-36 l-330 -5 -135 41 c-278 83 -393 106 -940 181 -1342 186 -1960 315 -2545
534 -388 146 -748 347 -937 525 -189 178 -297 341 -338 511 -74 313 61 581
355 703 135 56 258 65 615 47z m7290 -20 c234 -67 413 -242 450 -439 26 -141
3 -316 -58 -437 -90 -178 -318 -408 -562 -567 -232 -151 -693 -354 -971 -429
-157 -42 -275 -21 -526 93 -229 104 -214 101 -437 62 -126 -22 -183 -26 -342
-27 l-190 -1 -75 37 c-40 21 -128 76 -194 124 -167 119 -205 138 -285 139 -85
0 -154 -34 -310 -151 -63 -48 -131 -97 -150 -110 l-35 -23 -70 18 c-202 53
-226 65 -164 81 330 86 607 197 1170 471 471 228 613 293 805 370 327 130 630
211 944 250 183 23 212 29 217 45 17 51 -409 -13 -782 -117 -254 -70 -463
-158 -1060 -441 -762 -363 -935 -433 -1321 -538 l-121 -33 -72 28 c-39 16 -68
32 -64 36 4 4 49 28 98 55 117 62 334 190 512 302 l141 89 83 -15 c89 -16 193
-7 224 18 40 33 0 77 -81 88 -56 8 -52 13 54 67 l72 37 45 -18 c83 -31 275 -6
275 36 0 17 -63 50 -95 50 -16 0 -36 4 -44 9 -16 10 28 46 108 86 l53 27 69
-17 c90 -22 188 -17 226 12 16 11 28 26 28 34 0 19 -63 49 -102 49 -56 0 -45
16 37 54 l80 38 47 -18 c57 -22 166 -24 208 -3 17 8 31 23 33 36 3 18 -6 27
-42 44 l-44 22 71 46 c69 44 76 46 147 47 114 1 118 2 152 34 17 17 39 30 48
30 34 0 78 22 88 44 7 15 26 27 56 36 26 7 55 24 66 37 10 13 40 31 67 40 26
9 55 21 63 28 32 26 288 81 588 126 227 33 302 38 557 34 208 -3 250 -6 315
-25z m-3276 5 c-4 -8 -8 -15 -10 -15 -2 0 -4 7 -4 15 0 8 4 15 10 15 5 0 7 -7
4 -15z m226 -6 c0 -16 -176 -186 -211 -204 -16 -9 -29 -13 -29 -9 0 14 108
130 163 176 58 48 77 57 77 37z m-1110 -85 c-15 -79 -36 -100 -26 -26 8 60 28
122 34 104 2 -7 -1 -42 -8 -78z m2748 74 c-7 -22 -53 -32 -90 -21 l-33 10 35
11 c50 15 93 15 88 0z m-3315 -160 c9 -227 -10 -320 -41 -202 -15 57 -11 220
8 303 17 77 27 49 33 -101z m2227 144 c0 -19 -41 -44 -120 -73 -46 -16 -90
-28 -99 -27 -21 5 64 55 143 84 69 26 76 27 76 16z m215 -128 c17 -17 38 -35
49 -41 17 -9 14 -16 -38 -78 -32 -36 -77 -98 -101 -136 -43 -65 -79 -97 -149
-127 -16 -7 -30 -11 -31 -10 -2 2 2 24 8 50 5 27 8 51 4 54 -27 28 -147 -73
-196 -166 -26 -49 -42 -66 -90 -94 -32 -18 -68 -37 -79 -41 l-22 -6 20 43 c26
58 27 108 1 108 -29 0 -134 -101 -185 -179 -45 -68 -67 -90 -138 -136 -43 -27
-43 -27 -26 27 13 44 2 60 -34 50 -29 -7 -122 -101 -146 -147 -28 -54 -70 -92
-187 -168 -128 -82 -420 -257 -430 -257 -4 0 64 53 151 119 250 187 463 390
917 878 211 226 199 217 342 258 79 23 168 69 208 106 l32 31 45 -54 c25 -29
59 -67 75 -84z m-1024 89 c-8 -15 -10 -15 -11 -2 0 17 10 32 18 25 2 -3 -1
-13 -7 -23z m-2246 -175 c49 -150 56 -188 27 -150 -37 48 -103 262 -101 327 1
30 21 -18 74 -177z m3765 122 c-29 -37 -61 -57 -44 -27 22 37 69 88 72 78 2
-6 -11 -29 -28 -51z m100 25 c-7 -8 -17 -15 -23 -15 -5 0 -2 9 8 20 21 23 35
19 15 -5z m-2684 -13 c40 -29 72 -62 60 -62 -11 0 -113 67 -120 79 -13 21 21
11 60 -17z m2848 19 c7 -10 -27 -21 -68 -21 -24 0 -27 2 -16 15 13 16 75 21
84 6z m-4354 -63 c31 -66 36 -88 21 -88 -14 0 -134 83 -138 96 -3 9 62 53 80
54 4 0 21 -28 37 -62z m2540 2 c-16 -31 -23 -18 -8 15 7 15 14 23 16 17 2 -6
-2 -21 -8 -32z m-2842 24 c34 -9 22 -27 -29 -42 -78 -24 -369 -1 -369 29 0 4
19 10 43 12 73 6 331 7 355 1z m478 -16 c37 -28 40 -33 60 -88 10 -25 32 -81
50 -124 19 -44 33 -81 31 -82 -2 -2 -45 23 -95 56 l-92 59 0 101 c0 55 4 100
9 100 4 0 21 -10 37 -22z m635 5 c13 -16 12 -17 -3 -4 -10 7 -18 15 -18 17 0
8 8 3 21 -13z m3174 -12 c-7 -23 -25 -29 -25 -8 0 14 21 39 28 33 2 -3 1 -14
-3 -25z m-935 -28 c-84 -108 -692 -739 -815 -846 l-70 -61 60 64 c33 36 195
205 361 375 166 171 341 354 389 408 48 54 90 95 93 93 2 -3 -6 -18 -18 -33z
m1190 7 c25 -16 5 -21 -66 -18 -67 3 -68 3 -34 15 44 14 81 15 100 3z m-3370
-43 c0 -6 -9 -2 -20 8 -11 10 -20 23 -20 28 0 6 9 2 20 -8 11 -10 20 -23 20
-28z m3060 6 c0 -11 -51 -73 -60 -73 -11 0 -3 25 18 58 13 20 42 31 42 15z
m-2947 -146 c52 -62 145 -169 207 -237 63 -69 127 -140 144 -159 l31 -34 -48
39 c-69 56 -454 504 -434 504 3 0 48 -51 100 -113z m3122 103 c-3 -5 -28 -10
-55 -10 -27 0 -52 5 -55 10 -4 6 17 10 55 10 38 0 59 -4 55 -10z m-3519 -185
c23 -49 46 -103 50 -120 7 -27 6 -29 -9 -16 -26 21 -72 108 -101 189 -52 146
-22 119 60 -53z m1240 123 c-8 -43 -47 -140 -54 -134 -5 6 49 166 56 166 2 0
2 -15 -2 -32z m404 -56 c-35 -90 -143 -277 -196 -337 -30 -34 -35 -36 -29 -15
19 70 238 451 251 437 3 -3 -9 -41 -26 -85z m1440 84 c0 -2 -8 -10 -17 -17
-16 -13 -17 -12 -4 4 13 16 21 21 21 13z m-1241 -127 c-51 -116 -160 -322
-165 -316 -2 2 45 100 104 219 59 119 108 215 110 214 1 -2 -21 -54 -49 -117z
m1260 65 c-44 -45 -49 -35 -8 16 19 23 35 36 37 30 3 -7 -11 -27 -29 -46z
m-2142 0 c34 -20 83 -57 110 -82 43 -42 46 -46 26 -50 -33 -5 -78 23 -156 98
-80 77 -73 89 20 34z m2224 3 c-13 -12 -20 -15 -16 -7 14 26 28 41 33 35 3 -3
-5 -16 -17 -28z m214 13 c-3 -5 -26 -10 -51 -10 -24 0 -44 5 -44 10 0 6 23 10
51 10 31 0 48 -4 44 -10z m-3134 -221 c45 -79 92 -164 106 -187 58 -101 -56
14 -135 136 -43 67 -96 185 -107 242 l-7 35 31 -41 c17 -23 68 -106 112 -185z
m-896 180 c-38 -13 -303 -24 -292 -13 12 13 92 21 212 22 85 0 103 -2 80 -9z
m3635 -27 c0 -18 -56 -80 -64 -71 -6 6 47 89 57 89 4 0 7 -8 7 -18z m83 -141
c8 -8 -7 -11 -50 -11 -72 0 -102 8 -81 22 16 11 117 3 131 -11z m-420 -22
c-21 -35 -61 -75 -68 -67 -7 7 63 98 76 98 6 0 2 -14 -8 -31z m-2959 11 c-12
-12 -161 -30 -244 -29 -81 0 -33 17 83 28 137 13 173 13 161 1z m1404 -224
c45 -43 80 -81 78 -83 -20 -20 -266 174 -266 209 0 22 111 -53 188 -126z
m1235 87 c-9 -26 -52 -85 -77 -105 -52 -43 -37 -5 31 80 35 43 57 55 46 25z
m432 -13 c4 -6 -22 -10 -70 -10 -48 0 -74 4 -70 10 3 6 35 10 70 10 35 0 67
-4 70 -10z m-2791 -39 c39 -15 -7 -25 -132 -29 -78 -3 -127 -1 -134 6 -7 7 8
12 48 17 33 3 66 8 74 9 29 7 125 4 144 -3z m1657 -48 c-12 -20 -14 -14 -5 12
4 9 9 14 11 11 3 -2 0 -13 -6 -23z m764 -113 c4 -6 -20 -10 -64 -10 -38 0 -73
5 -76 10 -4 6 20 10 64 10 38 0 73 -4 76 -10z m-461 -62 c-28 -40 -54 -59 -54
-41 0 14 72 95 78 88 3 -3 -8 -24 -24 -47z m-920 1 c33 -17 89 -54 124 -82
100 -81 75 -88 -51 -13 -75 44 -147 102 -147 117 0 14 7 12 74 -22z m-704 -11
c52 -10 124 -24 160 -30 89 -14 99 -28 20 -28 -79 0 -264 41 -317 69 l-38 21
40 -6 c22 -3 83 -15 135 -26z m1776 -101 c15 -15 -9 -22 -74 -22 -78 0 -115
10 -92 26 17 11 154 8 166 -4z m-3287 -901 c418 -112 940 -214 1511 -296 305
-44 414 -61 425 -68 15 -10 -53 -19 -234 -33 -202 -16 -481 -2 -879 42 -147
16 -328 32 -402 35 -123 5 -149 3 -293 -25 -159 -31 -243 -39 -232 -22 3 5 61
28 130 51 82 27 125 47 125 56 0 20 -21 18 -159 -21 -69 -19 -145 -35 -170
-35 -44 1 -81 17 -81 37 0 14 255 92 303 93 10 0 34 7 55 16 31 13 34 17 20
25 -21 12 -171 -17 -312 -61 -111 -34 -152 -37 -184 -14 -26 18 -29 61 -8 102
28 53 165 162 205 162 8 0 89 -20 180 -44z"/>
<path d="M6888 10607 c-57 -16 -98 -42 -98 -63 0 -26 26 -26 161 -4 97 16 161
21 242 19 122 -4 144 6 80 37 -49 24 -311 31 -385 11z"/>
<path d="M6070 10346 c0 -22 48 -52 123 -75 62 -19 73 -19 136 -7 70 13 121
37 121 57 0 7 -13 9 -37 5 -21 -4 -77 -9 -124 -12 -76 -5 -92 -3 -147 20 -72
30 -72 30 -72 12z"/>
<path d="M7120 10330 c-59 -24 -188 -27 -231 -4 -34 17 -59 13 -59 -10 0 -23
68 -48 149 -53 85 -6 141 6 191 39 68 47 37 63 -50 28z"/>
<path d="M6459 9977 c-19 -41 1 -77 42 -77 17 0 49 -5 70 -12 43 -12 53 -9 44
15 -7 18 -47 35 -90 39 -21 2 -31 9 -33 23 -7 35 -20 39 -33 12z"/>
<path d="M6795 9985 c-3 -8 -7 -22 -10 -30 -3 -9 -17 -15 -35 -15 -39 0 -90
-26 -90 -45 0 -19 7 -19 60 0 32 11 46 12 57 4 29 -25 78 56 52 87 -15 18 -28
18 -34 -1z"/>
<path d="M6475 9751 c-74 -22 -125 -48 -125 -63 0 -29 135 -131 206 -155 65
-22 158 -13 222 22 60 32 153 122 146 140 -8 19 -100 56 -171 68 -48 9 -67 8
-86 -2 -18 -10 -30 -10 -45 -2 -29 15 -76 13 -147 -8z m127 -37 c30 -15 34
-15 64 1 34 18 62 17 117 -4 56 -22 16 -31 -131 -31 -149 0 -201 10 -152 28
14 5 32 12 40 15 24 9 29 8 62 -9z m164 -116 c-38 -19 -80 -32 -115 -35 -49
-4 -65 0 -126 31 l-70 35 185 0 185 0 -59 -31z"/>
<path d="M6335 9081 c-3 -6 1 -55 11 -108 29 -175 108 -381 162 -423 41 -33
41 -3 -1 73 -47 83 -93 218 -120 351 -20 101 -36 133 -52 107z"/>
<path d="M5780 8463 c-57 -5 -76 -11 -64 -23 5 -4 117 -13 249 -19 168 -8 273
-17 348 -32 80 -16 111 -19 119 -11 30 30 -152 67 -397 82 -93 5 -179 9 -190
8 -11 -1 -40 -3 -65 -5z"/>
<path d="M7124 8460 c-148 -16 -284 -51 -284 -72 0 -18 32 -20 102 -5 110 24
135 26 373 37 238 12 264 15 246 33 -14 14 -330 19 -437 7z"/>
<path d="M7492 9703 c-5 -10 -13 -47 -17 -83 -10 -93 -38 -175 -85 -250 -43
-69 -49 -90 -26 -90 33 0 100 109 130 210 33 111 31 276 -2 213z"/>
</g>
</svg>
